<mxfile host="Electron" agent="Mozilla/5.0 (Windows NT 10.0; Win64; x64) AppleWebKit/537.36 (KHTML, like Gecko) draw.io/28.0.4 Chrome/138.0.7204.97 Electron/37.2.1 Safari/537.36" version="28.0.4">
  <diagram name="第 1 页" id="aj2UyGKnMBBOljkiEFC_">
    <mxGraphModel dx="3235" dy="1209" grid="1" gridSize="10" guides="1" tooltips="1" connect="1" arrows="1" fold="1" page="1" pageScale="1" pageWidth="1169" pageHeight="827" math="0" shadow="0">
      <root>
        <mxCell id="0" />
        <mxCell id="1" parent="0" />
        <mxCell id="MILzZHtj4D0qBju9K7Hq-22" value="" style="rounded=0;whiteSpace=wrap;html=1;align=center;verticalAlign=middle;fontFamily=Helvetica;fontSize=12;" vertex="1" parent="1">
          <mxGeometry x="580" y="180" width="530" height="310" as="geometry" />
        </mxCell>
        <mxCell id="MILzZHtj4D0qBju9K7Hq-20" value="" style="rounded=0;whiteSpace=wrap;html=1;align=center;verticalAlign=middle;fontFamily=Helvetica;fontSize=12;" vertex="1" parent="1">
          <mxGeometry x="-80" y="180" width="530" height="310" as="geometry" />
        </mxCell>
        <mxCell id="UVHe-0nhMJIl-7QzKLo--1" value="" style="rounded=0;whiteSpace=wrap;html=1;fillColor=#fff2cc;strokeColor=#d6b656;" parent="1" vertex="1">
          <mxGeometry x="20" y="240" width="430" height="230" as="geometry" />
        </mxCell>
        <mxCell id="MILzZHtj4D0qBju9K7Hq-1" value="&lt;font style=&quot;font-size: 18px;&quot;&gt;AXI&lt;/font&gt;&lt;div&gt;&lt;font style=&quot;font-size: 18px;&quot;&gt;Channels&lt;/font&gt;&lt;/div&gt;" style="rounded=0;whiteSpace=wrap;html=1;fillColor=#dae8fc;strokeColor=#6c8ebf;" vertex="1" parent="1">
          <mxGeometry x="350" y="285" width="100" height="140" as="geometry" />
        </mxCell>
        <mxCell id="MILzZHtj4D0qBju9K7Hq-2" value="&lt;div&gt;&lt;font style=&quot;font-size: 18px;&quot;&gt;Master&lt;br&gt;Bundle&lt;/font&gt;&lt;/div&gt;" style="rounded=0;whiteSpace=wrap;html=1;fillColor=#dae8fc;strokeColor=#6c8ebf;" vertex="1" parent="1">
          <mxGeometry x="20" y="285" width="120" height="140" as="geometry" />
        </mxCell>
        <mxCell id="MILzZHtj4D0qBju9K7Hq-3" value="" style="endArrow=none;html=1;rounded=0;fontFamily=Helvetica;fontSize=12;fontColor=#333333;edgeStyle=orthogonalEdgeStyle;curved=1;exitX=1;exitY=0.25;exitDx=0;exitDy=0;entryX=0;entryY=0.75;entryDx=0;entryDy=0;" edge="1" parent="1" source="MILzZHtj4D0qBju9K7Hq-2" target="MILzZHtj4D0qBju9K7Hq-1">
          <mxGeometry width="50" height="50" relative="1" as="geometry">
            <mxPoint x="180" y="320" as="sourcePoint" />
            <mxPoint x="230" y="270" as="targetPoint" />
          </mxGeometry>
        </mxCell>
        <mxCell id="MILzZHtj4D0qBju9K7Hq-4" value="" style="endArrow=none;html=1;rounded=0;fontFamily=Helvetica;fontSize=12;fontColor=#333333;edgeStyle=orthogonalEdgeStyle;curved=1;exitX=1;exitY=0.75;exitDx=0;exitDy=0;entryX=0;entryY=0.25;entryDx=0;entryDy=0;" edge="1" parent="1" source="MILzZHtj4D0qBju9K7Hq-2" target="MILzZHtj4D0qBju9K7Hq-1">
          <mxGeometry width="50" height="50" relative="1" as="geometry">
            <mxPoint x="250" y="370" as="sourcePoint" />
            <mxPoint x="440" y="440" as="targetPoint" />
          </mxGeometry>
        </mxCell>
        <mxCell id="MILzZHtj4D0qBju9K7Hq-5" value="AXI4LiteMaster" style="text;html=1;align=left;verticalAlign=middle;resizable=0;points=[];autosize=1;strokeColor=none;fillColor=none;fontFamily=Helvetica;fontSize=18;fontColor=#333333;" vertex="1" parent="1">
          <mxGeometry x="30" y="240" width="150" height="40" as="geometry" />
        </mxCell>
        <mxCell id="MILzZHtj4D0qBju9K7Hq-6" value="" style="rounded=0;whiteSpace=wrap;html=1;fillColor=#fff2cc;strokeColor=#d6b656;" vertex="1" parent="1">
          <mxGeometry x="580" y="240" width="430" height="230" as="geometry" />
        </mxCell>
        <mxCell id="MILzZHtj4D0qBju9K7Hq-7" value="&lt;span style=&quot;font-size: 18px;&quot;&gt;Salve&lt;br&gt;Bundle&lt;/span&gt;" style="rounded=0;whiteSpace=wrap;html=1;fillColor=#dae8fc;strokeColor=#6c8ebf;" vertex="1" parent="1">
          <mxGeometry x="890" y="285" width="120" height="140" as="geometry" />
        </mxCell>
        <mxCell id="MILzZHtj4D0qBju9K7Hq-8" value="&lt;div&gt;&lt;span style=&quot;font-size: 18px;&quot;&gt;AXI&lt;br&gt;Channels&lt;/span&gt;&lt;/div&gt;" style="rounded=0;whiteSpace=wrap;html=1;fillColor=#dae8fc;strokeColor=#6c8ebf;" vertex="1" parent="1">
          <mxGeometry x="580" y="285" width="100" height="140" as="geometry" />
        </mxCell>
        <mxCell id="MILzZHtj4D0qBju9K7Hq-9" value="" style="endArrow=none;html=1;rounded=0;fontFamily=Helvetica;fontSize=12;fontColor=#333333;edgeStyle=orthogonalEdgeStyle;curved=1;exitX=1;exitY=0.25;exitDx=0;exitDy=0;entryX=0;entryY=0.75;entryDx=0;entryDy=0;" edge="1" parent="1" source="MILzZHtj4D0qBju9K7Hq-8" target="MILzZHtj4D0qBju9K7Hq-7">
          <mxGeometry width="50" height="50" relative="1" as="geometry">
            <mxPoint x="740" y="320" as="sourcePoint" />
            <mxPoint x="790" y="270" as="targetPoint" />
          </mxGeometry>
        </mxCell>
        <mxCell id="MILzZHtj4D0qBju9K7Hq-10" value="" style="endArrow=none;html=1;rounded=0;fontFamily=Helvetica;fontSize=12;fontColor=#333333;edgeStyle=orthogonalEdgeStyle;curved=1;exitX=1;exitY=0.75;exitDx=0;exitDy=0;entryX=0;entryY=0.25;entryDx=0;entryDy=0;" edge="1" parent="1" source="MILzZHtj4D0qBju9K7Hq-8" target="MILzZHtj4D0qBju9K7Hq-7">
          <mxGeometry width="50" height="50" relative="1" as="geometry">
            <mxPoint x="810" y="370" as="sourcePoint" />
            <mxPoint x="1000" y="440" as="targetPoint" />
          </mxGeometry>
        </mxCell>
        <mxCell id="MILzZHtj4D0qBju9K7Hq-11" value="AXI4LiteSlave" style="text;html=1;align=left;verticalAlign=middle;resizable=0;points=[];autosize=1;strokeColor=none;fillColor=none;fontFamily=Helvetica;fontSize=18;fontColor=#333333;" vertex="1" parent="1">
          <mxGeometry x="590" y="240" width="140" height="40" as="geometry" />
        </mxCell>
        <mxCell id="MILzZHtj4D0qBju9K7Hq-18" value="Bus" style="html=1;shadow=0;dashed=0;align=center;verticalAlign=middle;shape=mxgraph.arrows2.twoWayArrow;dy=0.32;dx=14.67;rounded=0;strokeColor=#666666;fontFamily=Helvetica;fontSize=16;fontColor=#333333;fillColor=#f5f5f5;" vertex="1" parent="1">
          <mxGeometry x="454" y="325" width="120" height="72" as="geometry" />
        </mxCell>
        <mxCell id="MILzZHtj4D0qBju9K7Hq-21" value="&lt;font style=&quot;font-size: 20px;&quot;&gt;CPU&lt;/font&gt;" style="text;html=1;align=center;verticalAlign=middle;resizable=0;points=[];autosize=1;strokeColor=none;fillColor=none;fontFamily=Helvetica;fontSize=12;fontColor=#333333;" vertex="1" parent="1">
          <mxGeometry x="-80" y="180" width="70" height="40" as="geometry" />
        </mxCell>
        <mxCell id="MILzZHtj4D0qBju9K7Hq-23" value="&lt;span style=&quot;font-size: 20px;&quot;&gt;Memory&lt;/span&gt;" style="text;html=1;align=center;verticalAlign=middle;resizable=0;points=[];autosize=1;strokeColor=none;fillColor=none;fontFamily=Helvetica;fontSize=12;fontColor=#333333;" vertex="1" parent="1">
          <mxGeometry x="585" y="180" width="100" height="40" as="geometry" />
        </mxCell>
        <mxCell id="MILzZHtj4D0qBju9K7Hq-26" style="edgeStyle=orthogonalEdgeStyle;rounded=0;orthogonalLoop=1;jettySize=auto;html=1;exitX=1;exitY=0.5;exitDx=0;exitDy=0;entryX=0;entryY=0.25;entryDx=0;entryDy=0;fontFamily=Helvetica;fontSize=12;fontColor=#333333;startArrow=classic;startFill=1;" edge="1" parent="1" source="MILzZHtj4D0qBju9K7Hq-24" target="MILzZHtj4D0qBju9K7Hq-2">
          <mxGeometry relative="1" as="geometry" />
        </mxCell>
        <mxCell id="MILzZHtj4D0qBju9K7Hq-24" value="&lt;font style=&quot;font-size: 18px;&quot;&gt;IF&lt;/font&gt;" style="rounded=0;whiteSpace=wrap;html=1;strokeColor=#666666;align=center;verticalAlign=middle;fontFamily=Helvetica;fontSize=12;fontColor=#333333;fillColor=#f5f5f5;" vertex="1" parent="1">
          <mxGeometry x="-70" y="270" width="50" height="60" as="geometry" />
        </mxCell>
        <mxCell id="MILzZHtj4D0qBju9K7Hq-27" style="edgeStyle=orthogonalEdgeStyle;rounded=0;orthogonalLoop=1;jettySize=auto;html=1;exitX=1;exitY=0.5;exitDx=0;exitDy=0;entryX=0;entryY=0.75;entryDx=0;entryDy=0;fontFamily=Helvetica;fontSize=12;fontColor=#333333;startArrow=classic;startFill=1;" edge="1" parent="1" source="MILzZHtj4D0qBju9K7Hq-25" target="MILzZHtj4D0qBju9K7Hq-2">
          <mxGeometry relative="1" as="geometry" />
        </mxCell>
        <mxCell id="MILzZHtj4D0qBju9K7Hq-25" value="&lt;font style=&quot;font-size: 18px;&quot;&gt;MEM&lt;/font&gt;" style="rounded=0;whiteSpace=wrap;html=1;strokeColor=#666666;align=center;verticalAlign=middle;fontFamily=Helvetica;fontSize=12;fontColor=#333333;fillColor=#f5f5f5;" vertex="1" parent="1">
          <mxGeometry x="-70" y="370" width="50" height="60" as="geometry" />
        </mxCell>
        <mxCell id="MILzZHtj4D0qBju9K7Hq-33" value="" style="group" vertex="1" connectable="0" parent="1">
          <mxGeometry x="1030" y="336" width="80" height="50" as="geometry" />
        </mxCell>
        <mxCell id="MILzZHtj4D0qBju9K7Hq-30" value="" style="sketch=0;pointerEvents=1;shadow=0;dashed=0;html=1;strokeColor=none;fillColor=#005F4B;labelPosition=center;verticalLabelPosition=bottom;verticalAlign=top;align=center;outlineConnect=0;shape=mxgraph.veeam2.ram;rounded=0;fontFamily=Helvetica;fontSize=12;fontColor=#333333;" vertex="1" parent="MILzZHtj4D0qBju9K7Hq-33">
          <mxGeometry width="60" height="30" as="geometry" />
        </mxCell>
        <mxCell id="MILzZHtj4D0qBju9K7Hq-31" value="" style="sketch=0;pointerEvents=1;shadow=0;dashed=0;html=1;strokeColor=none;fillColor=#005F4B;labelPosition=center;verticalLabelPosition=bottom;verticalAlign=top;align=center;outlineConnect=0;shape=mxgraph.veeam2.ram;rounded=0;fontFamily=Helvetica;fontSize=12;fontColor=#333333;" vertex="1" parent="MILzZHtj4D0qBju9K7Hq-33">
          <mxGeometry x="10" y="10" width="60" height="30" as="geometry" />
        </mxCell>
        <mxCell id="MILzZHtj4D0qBju9K7Hq-32" value="" style="sketch=0;pointerEvents=1;shadow=0;dashed=0;html=1;strokeColor=none;fillColor=#005F4B;labelPosition=center;verticalLabelPosition=bottom;verticalAlign=top;align=center;outlineConnect=0;shape=mxgraph.veeam2.ram;rounded=0;fontFamily=Helvetica;fontSize=12;fontColor=#333333;" vertex="1" parent="MILzZHtj4D0qBju9K7Hq-33">
          <mxGeometry x="20" y="20" width="60" height="30" as="geometry" />
        </mxCell>
        <mxCell id="MILzZHtj4D0qBju9K7Hq-35" value="" style="endArrow=classic;startArrow=classic;html=1;rounded=0;fontFamily=Helvetica;fontSize=12;fontColor=#333333;" edge="1" parent="1">
          <mxGeometry width="50" height="50" relative="1" as="geometry">
            <mxPoint x="1010" y="360.86" as="sourcePoint" />
            <mxPoint x="1030" y="360.86" as="targetPoint" />
          </mxGeometry>
        </mxCell>
      </root>
    </mxGraphModel>
  </diagram>
</mxfile>
